<mxfile host="app.diagrams.net" modified="2023-09-22T19:13:40.437Z" agent="Mozilla/5.0 (Windows NT 10.0; Win64; x64) AppleWebKit/537.36 (KHTML, like Gecko) Chrome/117.0.0.0 Safari/537.36" version="21.8.1" etag="C5ogJEOf2ge9CgRY5hiK" type="github">
  <diagram name="第 1 页" id="y8SI52C0ncUmYqQ_TgXL">
    <mxGraphModel>
      <root>
        <mxCell id="0" />
        <mxCell id="1" parent="0" />
      </root>
    </mxGraphModel>
  </diagram>
</mxfile>
